<?xml version="1.0" encoding="utf-8"?>
<!-- Generator: Adobe Illustrator 26.5.1, SVG Export Plug-In . SVG Version: 6.00 Build 0)  -->
<svg version="1.1" id="Layer_1" xmlns="http://www.w3.org/2000/svg" xmlns:xlink="http://www.w3.org/1999/xlink" x="0px" y="0px"
	 viewBox="0 0 3240 3240" style="enable-background:new 0 0 3240 3240;" xml:space="preserve">
<style type="text/css">
	.st0{fill:#AA6AAC;}
</style>
<g>
	<path class="st0" d="M1476.17,36.67c352.52,958.27,698.85,1899.7,1045.32,2841.53c180.32-81.13,216.43-288.5,64.42-408.12
		c-76.82-60.45-112.92-132.02-141.19-216.49c-14.99-44.8-31.73-89.02-47.93-134.19c237.2-37.06,526.33,204.87,555.52,459.55
		c34.58,301.77-156.17,606.7-606.23,624.39c-21.74-55.68-45.72-114.22-67.54-173.55c-69.46-188.9-140.82-377.19-205.58-567.7
		c-21.91-64.46-54.77-81.74-121.12-81.01c-342.2,3.76-684.54,6.41-1026.66,0.01c-208.28-3.89-399.37-63.14-529.48-242.96
		c-226.37-312.87-57.5-734.22,335.14-833c64.35-16.19,133.11-21.8,199.6-20.53c58.39,1.12,82.7-20.86,102.15-73.56
		c131.72-356.7,266.77-712.18,400.91-1067.98C1445.18,112.08,1458.12,81.57,1476.17,36.67z M1584,1559.79
		c-231.48,0-447.39-4.65-662.91,2.59c-72.71,2.45-152.45,20.95-215.02,56.59c-179.13,102.04-178.56,327.24,1.93,427
		c67.76,37.45,153.61,56.69,231.76,58.31c311.22,6.46,622.65,2.82,934.01,2.4c18.23-0.02,36.46-4.6,62.84-8.16
		c-154.22-419-305.73-830.62-465.22-1263.96c-60.21,160.54-111.53,297.38-168.06,448.1c51.98,0,91.09-4.42,128.51,1.63
		c23.11,3.73,55.19,18.32,63.32,36.79C1527.54,1394.7,1552.11,1471.76,1584,1559.79z"/>
	<path class="st0" d="M2188.41,3203.33c-636.46,0-1263.4,0-1904.68,0c32.51-90.18,61.07-175.59,95.67-258.49
		c5.03-12.04,38.96-16.86,59.54-16.9c532.27-1.03,1064.55-1.41,1596.82,0.42c21.95,0.08,55.71,17.46,63.65,35.64
		C2132.63,3040.07,2158.08,3119.52,2188.41,3203.33z"/>
	<path class="st0" d="M2091.45,1284.88c141.35,0,272.61-1.6,403.75,1.81c18.53,0.48,45.32,21.57,53.03,39.63
		c30.45,71.27,54.82,145.13,86.18,230.98c-143.87,0-276.78,0.94-409.64-1.29c-15.24-0.26-38.39-14.93-43.9-28.56
		C2149.76,1450.48,2122.92,1371.78,2091.45,1284.88z"/>
</g>
</svg>
